<svg xmlns="http://www.w3.org/2000/svg" xmlns:xlink="http://www.w3.org/1999/xlink" viewBox="62 45 312 104">
  <defs>
    <style>
      .cls-1, .cls-11, .cls-13, .cls-18, .cls-25 {
        fill: none;
      }

      .cls-2 {
        clip-path: url(#clip-Web_1920_1);
      }

      .cls-3, .cls-6 {
        fill: #004a72;
      }

      .cls-14, .cls-4 {
        fill: #006e9c;
      }

      .cls-4, .cls-5, .cls-6 {
        stroke: #313131;
      }

      .cls-4, .cls-5, .cls-6, .cls-7 {
        stroke-width: 0.5px;
      }

      .cls-19, .cls-5 {
        fill: #006f9e;
      }

      .cls-15, .cls-7 {
        fill: #313131;
      }

      .cls-11, .cls-18, .cls-25, .cls-7 {
        stroke: #fff;
      }

      .cls-10, .cls-17, .cls-8, .cls-9 {
        fill: #fff;
      }

      .cls-10, .cls-8 {
        font-size: 16px;
      }

      .cls-10, .cls-8, .cls-9 {
        font-family: Abel-Regular, Abel;
      }

      .cls-8, .cls-9 {
        letter-spacing: 0.25em;
      }

      .cls-9 {
        font-size: 21px;
      }

      .cls-10 {
        letter-spacing: 0.01em;
      }

      .cls-11, .cls-13 {
        stroke-width: 1px;
      }

      .cls-12 {
        fill: #40464e;
      }

      .cls-13 {
        stroke: #95989a;
      }

      .cls-16 {
        clip-path: url(#clip-path);
      }

      .cls-18 {
        stroke-linecap: round;
        stroke-linejoin: round;
        stroke-miterlimit: 2.613;
        stroke-width: 0.097px;
      }

      .cls-20 {
        fill: #00b8f1;
      }

      .cls-21 {
        clip-path: url(#clip-path-9);
      }

      .cls-22 {
        clip-path: url(#clip-path-17);
      }

      .cls-23 {
        fill: #ebebeb;
      }

      .cls-24 {
        fill: #95989a;
        font-size: 46px;
        font-family: HelveticaNeue, Helvetica Neue;
      }

      .cls-25 {
        stroke-width: 2px;
      }
    </style>
    <clipPath id="clip-path">
      <path id="Path_403" data-name="Path 403" class="cls-1" d="M0,36.488H907.812V-11.748H0Z" transform="translate(0 11.748)"/>
    </clipPath>
    <clipPath id="clip-path-9">
      <path id="Path_621" data-name="Path 621" class="cls-1" d="M0-155.542H310.865v-97.911H0Z" transform="translate(0 253.453)"/>
    </clipPath>
    <clipPath id="clip-path-17">
      <path id="Path_753" data-name="Path 753" class="cls-1" d="M0-181.9H227.194v-71.558H0Z" transform="translate(0 253.453)"/>
    </clipPath>
    <clipPath id="clip-Web_1920_1">
      <rect width="1920" height="1647"/>
    </clipPath>
  </defs>
  <g xmlns="http://www.w3.org/2000/svg" id="Group_530" data-name="Group 530" transform="translate(62 48.542)">
    <g id="Group_490" data-name="Group 490" transform="translate(12.316 0)">
      <path id="Path_616" data-name="Path 616" class="cls-19" d="M-40.035,0l-25.2,68.5h15.758L-24.278,0Z" transform="translate(65.237)"/>
    </g>
    <g id="Group_491" data-name="Group 491" transform="translate(0 0)">
      <path id="Path_617" data-name="Path 617" class="cls-20" d="M-40.035,0l-25.2,68.5h7.611L-32.424,0Z" transform="translate(65.236)"/>
    </g>
    <g id="Group_492" data-name="Group 492" transform="translate(32.711 0)">
      <path id="Path_618" data-name="Path 618" class="cls-3" d="M-40.035,0l-25.2,68.5H-43.86L-18.659,0Z" transform="translate(65.236)"/>
    </g>
    <g id="Group_495" data-name="Group 495" class="cls-21">
      <g id="Group_493" data-name="Group 493" transform="translate(245.379 53.305)">
        <path id="Path_619" data-name="Path 619" class="cls-20" d="M-99.419-17.812a4.134,4.134,0,0,0,.307-1.622,2.278,2.278,0,0,0-.341-1.126,2.648,2.648,0,0,0-.773-.78,9.184,9.184,0,0,0-1-.583c-.351-.177-.693-.348-1.024-.518a3.186,3.186,0,0,1-.837-.6,1.661,1.661,0,0,1-.445-.838,2.2,2.2,0,0,1,.155-1.2l.1-.281a3.475,3.475,0,0,1,.515-.929,3.968,3.968,0,0,1,.757-.753,3.8,3.8,0,0,1,.9-.509,2.537,2.537,0,0,1,.941-.188h.78a1.626,1.626,0,0,1,.8.188,1.336,1.336,0,0,1,.521.509,1.622,1.622,0,0,1,.2.753,2.436,2.436,0,0,1-.164.929l-.219.6,1.337-.219.14-.384a3.747,3.747,0,0,0,.25-1.423,2.528,2.528,0,0,0-.311-1.164,2.047,2.047,0,0,0-.807-.784,2.522,2.522,0,0,0-1.23-.286h-.9a3.958,3.958,0,0,0-1.442.286,5.594,5.594,0,0,0-1.382.784,6.273,6.273,0,0,0-1.159,1.164,5.325,5.325,0,0,0-.786,1.423l-.1.281a4.091,4.091,0,0,0-.3,1.611,2.208,2.208,0,0,0,.348,1.106,2.553,2.553,0,0,0,.783.753,9.194,9.194,0,0,0,1.012.552c.355.165.7.333,1.032.5a2.982,2.982,0,0,1,.838.608,1.731,1.731,0,0,1,.434.869,2.49,2.49,0,0,1-.184,1.278l-.163.447a3.226,3.226,0,0,1-.528.929,4.324,4.324,0,0,1-.788.759,3.947,3.947,0,0,1-.927.514,2.658,2.658,0,0,1-.955.188h-.878a1.73,1.73,0,0,1-.823-.188,1.43,1.43,0,0,1-.559-.514,1.67,1.67,0,0,1-.235-.759,2.209,2.209,0,0,1,.148-.929l.3-.811-1.337.219-.216.592a3.458,3.458,0,0,0-.23,1.423,2.576,2.576,0,0,0,.347,1.164,2.115,2.115,0,0,0,.834.784,2.612,2.612,0,0,0,1.245.286h1.006a4.044,4.044,0,0,0,1.453-.286,5.811,5.811,0,0,0,1.407-.784,6.671,6.671,0,0,0,1.192-1.164,5.022,5.022,0,0,0,.806-1.423Zm-9.443-6.13a3.472,3.472,0,0,1-.513.929,4.2,4.2,0,0,1-.754.757,3.643,3.643,0,0,1-.894.516,2.575,2.575,0,0,1-.941.185h-3.119l2.178-5.985h3.119a1.629,1.629,0,0,1,.805.188,1.312,1.312,0,0,1,.519.514,1.707,1.707,0,0,1,.2.759,2.432,2.432,0,0,1-.164.929Zm-2.032,10.026-1.476-6.36a3.916,3.916,0,0,0,1.439-.284,5.713,5.713,0,0,0,1.378-.786,6.239,6.239,0,0,0,1.16-1.169,5.373,5.373,0,0,0,.788-1.427l.439-1.206a3.783,3.783,0,0,0,.252-1.43,2.507,2.507,0,0,0-.309-1.168,2.046,2.046,0,0,0-.807-.784,2.521,2.521,0,0,0-1.232-.286h-4.432l-5.423,14.9h1.256l2.315-6.36h1.725l1.476,6.36Zm-11.023-3.449a3.457,3.457,0,0,1-.512.929,4.3,4.3,0,0,1-.754.759,3.7,3.7,0,0,1-.893.514,2.537,2.537,0,0,1-.942.188h-.875a1.629,1.629,0,0,1-.805-.188,1.362,1.362,0,0,1-.523-.514,1.625,1.625,0,0,1-.206-.759,2.432,2.432,0,0,1,.162-.929l2.912-8a3.466,3.466,0,0,1,.515-.929,3.955,3.955,0,0,1,.756-.753,3.8,3.8,0,0,1,.9-.509,2.537,2.537,0,0,1,.942-.188h.875a1.629,1.629,0,0,1,.805.188,1.348,1.348,0,0,1,.52.509,1.646,1.646,0,0,1,.2.753,2.436,2.436,0,0,1-.164.929Zm1.258,0,2.912-8a3.74,3.74,0,0,0,.25-1.423,2.528,2.528,0,0,0-.311-1.164,2.047,2.047,0,0,0-.807-.784,2.524,2.524,0,0,0-1.232-.286h-.994a3.958,3.958,0,0,0-1.442.286,5.594,5.594,0,0,0-1.382.784,6.273,6.273,0,0,0-1.159,1.164,5.325,5.325,0,0,0-.786,1.423l-2.912,8a3.732,3.732,0,0,0-.25,1.423,2.5,2.5,0,0,0,.311,1.164,2.029,2.029,0,0,0,.812.784,2.54,2.54,0,0,0,1.234.286h.994a3.924,3.924,0,0,0,1.44-.286,5.637,5.637,0,0,0,1.378-.784,6.347,6.347,0,0,0,1.159-1.164,5.31,5.31,0,0,0,.786-1.423m-5.955-10.173.465-1.278h-7.921l-.465,1.278h3.333l-4.958,13.622h1.256l4.958-13.622ZM-141.3-17.365a3.468,3.468,0,0,1-.513.929,4.282,4.282,0,0,1-.754.759,3.7,3.7,0,0,1-.893.514,2.537,2.537,0,0,1-.941.188h-.876a1.627,1.627,0,0,1-.805-.188,1.36,1.36,0,0,1-.523-.514,1.629,1.629,0,0,1-.206-.759,2.431,2.431,0,0,1,.162-.929l2.912-8a3.475,3.475,0,0,1,.515-.929,3.968,3.968,0,0,1,.757-.753,3.8,3.8,0,0,1,.9-.509,2.537,2.537,0,0,1,.942-.188h.875a1.629,1.629,0,0,1,.805.188,1.348,1.348,0,0,1,.52.509,1.641,1.641,0,0,1,.2.753,2.436,2.436,0,0,1-.164.929Zm1.257,0,2.913-8a3.746,3.746,0,0,0,.25-1.423,2.528,2.528,0,0,0-.311-1.164,2.047,2.047,0,0,0-.807-.784,2.524,2.524,0,0,0-1.232-.286h-.992a3.961,3.961,0,0,0-1.444.286,5.594,5.594,0,0,0-1.382.784A6.273,6.273,0,0,0-144.2-26.79a5.325,5.325,0,0,0-.786,1.423l-2.912,8a3.732,3.732,0,0,0-.25,1.423,2.5,2.5,0,0,0,.311,1.164,2.029,2.029,0,0,0,.812.784,2.543,2.543,0,0,0,1.236.286h.992a3.922,3.922,0,0,0,1.44-.286,5.638,5.638,0,0,0,1.378-.784,6.347,6.347,0,0,0,1.159-1.164,5.31,5.31,0,0,0,.786-1.423m-12.1,3.449,5.423-14.9h-.663l-8.676,12.22-.238.549.16-.549.21-12.22h-.652L-162-13.916h1.255l3.717-10.214-.153.635-.212,9.579h.664l6.73-9.579.318-.635L-153.4-13.916Z" transform="translate(162.001 29.024)"/>
      </g>
      <g id="Group_494" data-name="Group 494" transform="translate(64.299 0.001)">
        <path id="Path_620" data-name="Path 620" class="cls-17" d="M-269.92,0h-16.332l-24.975,68.619h46.481l5.315-14.6H-289.58Zm-52.858,30.464h-22.455l5.772-15.859h22.455ZM-350.474,0-375.45,68.619h16.332l8.572-23.552h30.618a11.328,11.328,0,0,0,6.426-2.12,10.773,10.773,0,0,0,4.269-5.261l11.088-30.464a5.126,5.126,0,0,0-.5-5.1A5.694,5.694,0,0,0-303.525,0Zm-45.94,54.175h-22.14l14.345-39.413h22.14ZM-414.853,0l-24.976,68.619h46.323a11.469,11.469,0,0,0,6.394-2.04,10.417,10.417,0,0,0,4.243-5.183l19.66-54.016a5.3,5.3,0,0,0-.442-5.261A5.689,5.689,0,0,0-368.531,0Z" transform="translate(439.829)"/>
      </g>
    </g>
    <g id="Group_496" data-name="Group 496" transform="translate(0 86.671)">
      <path id="Path_622" data-name="Path 622" class="cls-17" d="M0,0V11.087H6.24v-.95H1V6.022H5.243v-.95H1V.95H6.24V0Z"/>
    </g>
    <g id="Group_497" data-name="Group 497" transform="translate(0.001 86.67)">
      <path id="Path_623" data-name="Path 623" class="cls-17" d="M0,0V11.087H6.239v-.952H1V6.022H5.241v-.95H1V.95H6.239V0Z"/>
    </g>
    <g id="Group_502" data-name="Group 502" class="cls-21">
      <g id="Group_498" data-name="Group 498" transform="translate(10.815 86.67)">
        <path id="Path_624" data-name="Path 624" class="cls-17" d="M-8.328-13.533a1.725,1.725,0,0,1-.139.693,1.838,1.838,0,0,1-.379.565,1.742,1.742,0,0,1-.561.383,1.723,1.723,0,0,1-.691.138h-.7a1.731,1.731,0,0,1-.693-.138,1.809,1.809,0,0,1-.564-.383,1.807,1.807,0,0,1-.382-.565,1.706,1.706,0,0,1-.139-.693v-8.519h-1v8.519a2.648,2.648,0,0,0,.212,1.06,2.732,2.732,0,0,0,.584.866,2.724,2.724,0,0,0,.871.585,2.694,2.694,0,0,0,1.063.211h.788a2.673,2.673,0,0,0,1.059-.211,2.757,2.757,0,0,0,.866-.585,2.732,2.732,0,0,0,.584-.866,2.647,2.647,0,0,0,.212-1.06v-8.519h-1Z" transform="translate(13.57 22.052)"/>
      </g>
      <g id="Group_499" data-name="Group 499" transform="translate(22.107 86.67)">
        <path id="Path_625" data-name="Path 625" class="cls-17" d="M-7.272-9.758a2.728,2.728,0,0,0,.866-.585,2.717,2.717,0,0,0,.584-.868,2.684,2.684,0,0,0,.212-1.064v-.9a2.676,2.676,0,0,0-.212-1.062,2.73,2.73,0,0,0-.584-.87,2.753,2.753,0,0,0-.866-.583,2.638,2.638,0,0,0-1.06-.214h-3.518V-4.814h1V-9.545h1.369l3.007,4.731h1.152L-8.331-9.545a2.678,2.678,0,0,0,1.06-.213m-3.58-.739v-4.454h2.474a1.723,1.723,0,0,1,.691.141,1.732,1.732,0,0,1,.561.383,1.8,1.8,0,0,1,.379.565,1.722,1.722,0,0,1,.139.69v.9a1.725,1.725,0,0,1-.139.693,1.832,1.832,0,0,1-.379.565,1.744,1.744,0,0,1-.561.383,1.728,1.728,0,0,1-.691.138Z" transform="translate(11.849 15.901)"/>
      </g>
      <g id="Group_500" data-name="Group 500" transform="translate(33.222 86.514)">
        <path id="Path_626" data-name="Path 626" class="cls-17" d="M-8.648-1.268a2.762,2.762,0,0,0-.866-.585,2.678,2.678,0,0,0-1.06-.213h-.788a2.7,2.7,0,0,0-1.063.213,2.739,2.739,0,0,0-.871.585,2.739,2.739,0,0,0-.584.866A2.646,2.646,0,0,0-14.091.656V6.609a2.649,2.649,0,0,0,.212,1.06,2.743,2.743,0,0,0,.584.866,2.739,2.739,0,0,0,.871.585,2.7,2.7,0,0,0,1.063.211h.788a2.676,2.676,0,0,0,1.06-.211,2.762,2.762,0,0,0,.866-.585,2.737,2.737,0,0,0,.584-.866,2.649,2.649,0,0,0,.212-1.06V.656A2.646,2.646,0,0,0-8.064-.4a2.732,2.732,0,0,0-.584-.866m-.2,7.877a1.724,1.724,0,0,1-.139.693,1.833,1.833,0,0,1-.379.565,1.737,1.737,0,0,1-.561.382,1.722,1.722,0,0,1-.691.139h-.7a1.733,1.733,0,0,1-.693-.139,1.807,1.807,0,0,1-.564-.382,1.81,1.81,0,0,1-.383-.565,1.711,1.711,0,0,1-.139-.693V.656a1.707,1.707,0,0,1,.139-.69A1.719,1.719,0,0,1-12.572-.6a1.875,1.875,0,0,1,.564-.38,1.733,1.733,0,0,1,.693-.139h.7a1.722,1.722,0,0,1,.691.139,1.8,1.8,0,0,1,.561.38,1.74,1.74,0,0,1,.379.561,1.72,1.72,0,0,1,.139.69Z" transform="translate(14.091 2.066)"/>
      </g>
      <g id="Group_501" data-name="Group 501" transform="translate(44.679 86.67)">
        <path id="Path_627" data-name="Path 627" class="cls-17" d="M-8.646-1.264a2.732,2.732,0,0,0-.87-.583,2.659,2.659,0,0,0-1.063-.213h-3.51V9.027h1V4.766h2.513a2.7,2.7,0,0,0,1.063-.211,2.738,2.738,0,0,0,.87-.585A2.759,2.759,0,0,0-8.062,3.1a2.658,2.658,0,0,0,.213-1.06V.668A2.674,2.674,0,0,0-8.062-.393a2.731,2.731,0,0,0-.584-.871m-.2,3.309a1.725,1.725,0,0,1-.138.693,1.8,1.8,0,0,1-.382.561,1.828,1.828,0,0,1-.565.378,1.686,1.686,0,0,1-.691.141h-2.467V-1.11h2.467a1.731,1.731,0,0,1,.691.141,1.808,1.808,0,0,1,.565.383,1.822,1.822,0,0,1,.382.565,1.718,1.718,0,0,1,.138.69Z" transform="translate(14.088 2.06)"/>
      </g>
    </g>
    <g id="Group_503" data-name="Group 503" transform="translate(55.654 86.67)">
      <path id="Path_629" data-name="Path 629" class="cls-17" d="M0,0V11.087H6.239v-.952H1V6.022H5.241v-.95H1V.95H6.239V0Z"/>
    </g>
    <g id="Group_504" data-name="Group 504" transform="translate(65.517 86.67)">
      <path id="Path_630" data-name="Path 630" class="cls-17" d="M-5.158,0-8.4,11.087H-7.37L-6.643,8.5h3.511l.734,2.583H-1.37L-4.633,0Zm.24,2.442.031-.409.031.409,1.462,5.112H-6.371Z" transform="translate(8.405)"/>
    </g>
    <g id="Group_505" data-name="Group 505" transform="translate(76.825 86.67)">
      <path id="Path_631" data-name="Path 631" class="cls-17" d="M-8.326,0V8.55l-.1-.471L-13.049,0h-.518V11.087h1V2.535l.092.479,4.623,8.073h.527V0Z" transform="translate(13.567)"/>
    </g>
    <g id="Group_506" data-name="Group 506" transform="translate(94.927 86.67)">
      <path id="Path_632" data-name="Path 632" class="cls-17" d="M-11.593,0l-3.355,9.093-.031.409-.032-.409L-18.373,0h-.518V11.087h1v-7.6l.062.471,2.6,7.13h.527l2.574-7.13.07-.471v7.6h1V0Z" transform="translate(18.891)"/>
    </g>
    <g id="Group_507" data-name="Group 507" transform="translate(108.13 86.67)">
      <path id="Path_633" data-name="Path 633" class="cls-17" d="M0,0V11.087H6.239v-.952H1V6.022H5.241v-.95H1V.95H6.239V0Z"/>
    </g>
    <g id="Group_509" data-name="Group 509" class="cls-21">
      <g id="Group_508" data-name="Group 508" transform="translate(118.943 86.514)">
        <path id="Path_634" data-name="Path 634" class="cls-17" d="M-8.648-1.268a2.766,2.766,0,0,0-.866-.585,2.678,2.678,0,0,0-1.06-.213h-.787a2.7,2.7,0,0,0-1.064.213,2.756,2.756,0,0,0-.871.585,2.729,2.729,0,0,0-.583.866A2.627,2.627,0,0,0-14.091.656V6.609a2.63,2.63,0,0,0,.213,1.06,2.734,2.734,0,0,0,.583.866,2.756,2.756,0,0,0,.871.585,2.7,2.7,0,0,0,1.064.211h.787a2.676,2.676,0,0,0,1.06-.211,2.766,2.766,0,0,0,.866-.585,2.74,2.74,0,0,0,.585-.866,2.669,2.669,0,0,0,.211-1.06V6.17l-1-.163v.6a1.725,1.725,0,0,1-.141.693,1.83,1.83,0,0,1-.378.565,1.762,1.762,0,0,1-.561.382,1.725,1.725,0,0,1-.693.139h-.695a1.725,1.725,0,0,1-.693-.139,1.807,1.807,0,0,1-.565-.382,1.81,1.81,0,0,1-.383-.565,1.723,1.723,0,0,1-.138-.693V.656a1.72,1.72,0,0,1,.138-.69A1.719,1.719,0,0,1-12.572-.6a1.876,1.876,0,0,1,.565-.38,1.725,1.725,0,0,1,.693-.139h.695a1.725,1.725,0,0,1,.693.139,1.828,1.828,0,0,1,.561.38,1.737,1.737,0,0,1,.378.561,1.721,1.721,0,0,1,.141.69v.6l1-.156V.656A2.665,2.665,0,0,0-8.063-.4a2.736,2.736,0,0,0-.585-.866" transform="translate(14.091 2.066)"/>
      </g>
    </g>
    <g id="Group_510" data-name="Group 510" transform="translate(130.251 86.67)">
      <path id="Path_636" data-name="Path 636" class="cls-17" d="M-8.327,0V5.072H-12.57V0h-1V11.087h1V6.022h4.243v5.065h1V0Z" transform="translate(13.568)"/>
    </g>
    <g id="Group_511" data-name="Group 511" transform="translate(140.749 86.67)">
      <path id="Path_637" data-name="Path 637" class="cls-17" d="M-5.159,0-8.406,11.087H-7.37L-6.645,8.5h3.512l.734,2.583h1.029L-4.633,0Zm.24,2.442.031-.409.031.409L-3.4,7.554H-6.372Z" transform="translate(8.406)"/>
    </g>
    <g id="Group_512" data-name="Group 512" transform="translate(152.058 86.67)">
      <path id="Path_638" data-name="Path 638" class="cls-17" d="M-8.326,0V8.55l-.1-.471L-13.051,0h-.516V11.087h1V2.535l.092.479,4.623,8.073h.528V0Z" transform="translate(13.567)"/>
    </g>
    <path id="Path_639" data-name="Path 639" class="cls-17" d="M423.669-18.011h1V-29.1h-1Z" transform="translate(-260.002 115.768)"/>
    <g id="Group_514" data-name="Group 514" class="cls-21">
      <g id="Group_513" data-name="Group 513" transform="translate(169.873 86.514)">
        <path id="Path_640" data-name="Path 640" class="cls-17" d="M-8.648-1.268a2.766,2.766,0,0,0-.866-.585,2.678,2.678,0,0,0-1.06-.213h-.789a2.7,2.7,0,0,0-1.062.213,2.713,2.713,0,0,0-.871.585A2.736,2.736,0,0,0-13.88-.4,2.665,2.665,0,0,0-14.091.656V6.609a2.669,2.669,0,0,0,.211,1.06,2.74,2.74,0,0,0,.585.866,2.713,2.713,0,0,0,.871.585,2.693,2.693,0,0,0,1.062.211h.789a2.676,2.676,0,0,0,1.06-.211,2.766,2.766,0,0,0,.866-.585,2.734,2.734,0,0,0,.583-.866,2.63,2.63,0,0,0,.213-1.06V6.17l-1-.163v.6a1.723,1.723,0,0,1-.138.693,1.837,1.837,0,0,1-.381.565,1.712,1.712,0,0,1-.561.382,1.722,1.722,0,0,1-.69.139h-.7a1.741,1.741,0,0,1-.693-.139,1.8,1.8,0,0,1-.562-.382,1.81,1.81,0,0,1-.383-.565,1.693,1.693,0,0,1-.141-.693V.656a1.689,1.689,0,0,1,.141-.69A1.719,1.719,0,0,1-12.572-.6a1.865,1.865,0,0,1,.562-.38,1.741,1.741,0,0,1,.693-.139h.7a1.722,1.722,0,0,1,.69.139,1.774,1.774,0,0,1,.561.38,1.743,1.743,0,0,1,.381.561,1.72,1.72,0,0,1,.138.69v.6l1-.156V.656A2.627,2.627,0,0,0-8.065-.4a2.729,2.729,0,0,0-.583-.866" transform="translate(14.091 2.066)"/>
      </g>
    </g>
    <g id="Group_515" data-name="Group 515" transform="translate(180.067 86.67)">
      <path id="Path_642" data-name="Path 642" class="cls-17" d="M-5.158,0-8.4,11.087H-7.37L-6.642,8.5h3.511l.734,2.583H-1.37L-4.633,0Zm.24,2.442.031-.409.031.409,1.462,5.112H-6.372Z" transform="translate(8.405)"/>
    </g>
    <g id="Group_516" data-name="Group 516" transform="translate(191.213 86.67)">
      <path id="Path_643" data-name="Path 643" class="cls-17" d="M0,0V11.087H5.243v-.952H1V0Z"/>
    </g>
    <g id="Group_519" data-name="Group 519" class="cls-21">
      <g id="Group_517" data-name="Group 517" transform="translate(207.066 86.514)">
        <path id="Path_644" data-name="Path 644" class="cls-17" d="M-8.854-10.006a3.632,3.632,0,0,0-.838-.58c-.312-.156-.633-.3-.963-.433s-.651-.26-.963-.387a4.093,4.093,0,0,1-.838-.449,2.059,2.059,0,0,1-.6-.622,1.676,1.676,0,0,1-.224-.9v-.209a1.722,1.722,0,0,1,.139-.69,1.717,1.717,0,0,1,.382-.561,1.883,1.883,0,0,1,.565-.381,1.723,1.723,0,0,1,.692-.138h.618a1.73,1.73,0,0,1,.692.138,1.835,1.835,0,0,1,.561.381,1.786,1.786,0,0,1,.378.561,1.728,1.728,0,0,1,.138.69v.449l1-.161v-.288a2.632,2.632,0,0,0-.213-1.057,2.742,2.742,0,0,0-.583-.866,2.76,2.76,0,0,0-.866-.584,2.67,2.67,0,0,0-1.06-.214h-.71a2.691,2.691,0,0,0-1.064.214,2.749,2.749,0,0,0-.871.584,2.729,2.729,0,0,0-.583.866,2.625,2.625,0,0,0-.213,1.057v.209a2.85,2.85,0,0,0,.224,1.2,2.494,2.494,0,0,0,.6.824,3.448,3.448,0,0,0,.839.561c.31.15.631.286.961.409s.651.248.963.372a3.86,3.86,0,0,1,.84.453,2.141,2.141,0,0,1,.6.646,1.841,1.841,0,0,1,.224.95v.332a1.6,1.6,0,0,1-.152.693,1.88,1.88,0,0,1-.407.565,1.88,1.88,0,0,1-.587.383,1.809,1.809,0,0,1-.7.138h-.695a1.837,1.837,0,0,1-.708-.138,1.875,1.875,0,0,1-.591-.383,1.88,1.88,0,0,1-.407-.565,1.6,1.6,0,0,1-.152-.693v-.6l-1,.163v.44A2.47,2.47,0,0,0-14.2-6.57a2.837,2.837,0,0,0,.609.866,2.838,2.838,0,0,0,.89.585,2.751,2.751,0,0,0,1.07.211h.8a2.755,2.755,0,0,0,1.071-.211,2.847,2.847,0,0,0,.89-.585A2.89,2.89,0,0,0-8.26-6.57a2.5,2.5,0,0,0,.226-1.06v-.332a2.9,2.9,0,0,0-.224-1.2,2.564,2.564,0,0,0-.6-.84" transform="translate(14.427 16.305)"/>
      </g>
      <g id="Group_518" data-name="Group 518" transform="translate(218.437 86.67)">
        <path id="Path_645" data-name="Path 645" class="cls-17" d="M-8.644-1.264a2.718,2.718,0,0,0-.868-.583,2.665,2.665,0,0,0-1.064-.213h-3.509V9.027h1V4.766h2.513a2.7,2.7,0,0,0,1.064-.211,2.724,2.724,0,0,0,.868-.585A2.762,2.762,0,0,0-8.059,3.1a2.678,2.678,0,0,0,.213-1.06V.668A2.694,2.694,0,0,0-8.059-.393a2.735,2.735,0,0,0-.585-.871m-.2,3.309a1.725,1.725,0,0,1-.138.693,1.835,1.835,0,0,1-.383.561,1.835,1.835,0,0,1-.565.378,1.688,1.688,0,0,1-.693.141h-2.467V-1.11h2.467A1.733,1.733,0,0,1-9.93-.97a1.815,1.815,0,0,1,.565.383,1.857,1.857,0,0,1,.383.565,1.718,1.718,0,0,1,.138.69Z" transform="translate(14.085 2.06)"/>
      </g>
    </g>
    <g id="Group_520" data-name="Group 520" transform="translate(229.411 86.67)">
      <path id="Path_647" data-name="Path 647" class="cls-17" d="M0,0V11.087H6.239v-.952H1V6.022H5.241v-.95H1V.95H6.239V0Z"/>
    </g>
    <g id="Group_522" data-name="Group 522" class="cls-21">
      <g id="Group_521" data-name="Group 521" transform="translate(240.226 86.514)">
        <path id="Path_648" data-name="Path 648" class="cls-17" d="M-8.648-1.268a2.762,2.762,0,0,0-.866-.585,2.678,2.678,0,0,0-1.06-.213h-.789a2.7,2.7,0,0,0-1.062.213,2.713,2.713,0,0,0-.871.585A2.735,2.735,0,0,0-13.88-.4,2.659,2.659,0,0,0-14.091.656V6.609a2.662,2.662,0,0,0,.211,1.06,2.739,2.739,0,0,0,.584.866,2.713,2.713,0,0,0,.871.585,2.693,2.693,0,0,0,1.062.211h.789a2.676,2.676,0,0,0,1.06-.211,2.762,2.762,0,0,0,.866-.585,2.727,2.727,0,0,0,.583-.866,2.63,2.63,0,0,0,.213-1.06V6.17l-1-.163v.6a1.724,1.724,0,0,1-.139.693,1.842,1.842,0,0,1-.38.565,1.718,1.718,0,0,1-.561.382,1.72,1.72,0,0,1-.69.139h-.7a1.738,1.738,0,0,1-.692-.139,1.794,1.794,0,0,1-.563-.382,1.8,1.8,0,0,1-.382-.565,1.687,1.687,0,0,1-.141-.693V.656a1.683,1.683,0,0,1,.141-.69A1.712,1.712,0,0,1-12.572-.6a1.862,1.862,0,0,1,.563-.38,1.738,1.738,0,0,1,.692-.139h.7a1.72,1.72,0,0,1,.69.139,1.78,1.78,0,0,1,.561.38,1.748,1.748,0,0,1,.38.561,1.72,1.72,0,0,1,.139.69v.6l1-.156V.656A2.627,2.627,0,0,0-8.065-.4a2.723,2.723,0,0,0-.583-.866" transform="translate(14.091 2.066)"/>
      </g>
    </g>
    <path id="Path_650" data-name="Path 650" class="cls-17" d="M651.126-18.011h1V-29.1h-1Z" transform="translate(-399.591 115.768)"/>
    <g id="Group_523" data-name="Group 523" transform="translate(256.789 86.67)">
      <path id="Path_651" data-name="Path 651" class="cls-17" d="M-5.159,0-8.406,11.087H-7.37L-6.645,8.5h3.512l.734,2.583h1.029L-4.633,0Zm.24,2.442.031-.409.031.409L-3.4,7.554H-6.372Z" transform="translate(8.406)"/>
    </g>
    <g id="Group_524" data-name="Group 524" transform="translate(267.935 86.67)">
      <path id="Path_652" data-name="Path 652" class="cls-17" d="M0,0V11.087H5.241v-.952H1V0Z"/>
    </g>
    <path id="Path_653" data-name="Path 653" class="cls-17" d="M718.632-18.011h1V-29.1h-1Z" transform="translate(-441.019 115.768)"/>
    <g id="Group_526" data-name="Group 526" class="cls-21">
      <g id="Group_525" data-name="Group 525" transform="translate(283.663 86.514)">
        <path id="Path_654" data-name="Path 654" class="cls-17" d="M-8.854-10.006a3.632,3.632,0,0,0-.838-.58c-.312-.156-.633-.3-.963-.433s-.651-.26-.963-.387a4.09,4.09,0,0,1-.838-.449,2.059,2.059,0,0,1-.6-.622,1.676,1.676,0,0,1-.224-.9v-.209a1.722,1.722,0,0,1,.138-.69,1.717,1.717,0,0,1,.382-.561,1.878,1.878,0,0,1,.565-.381,1.723,1.723,0,0,1,.692-.138h.618a1.73,1.73,0,0,1,.692.138,1.835,1.835,0,0,1,.561.381,1.779,1.779,0,0,1,.378.561,1.722,1.722,0,0,1,.139.69v.449l1-.161v-.288a2.632,2.632,0,0,0-.213-1.057,2.736,2.736,0,0,0-.583-.866,2.754,2.754,0,0,0-.866-.584,2.67,2.67,0,0,0-1.06-.214h-.71a2.691,2.691,0,0,0-1.064.214,2.749,2.749,0,0,0-.871.584,2.729,2.729,0,0,0-.583.866,2.625,2.625,0,0,0-.213,1.057v.209a2.85,2.85,0,0,0,.224,1.2,2.494,2.494,0,0,0,.6.824,3.448,3.448,0,0,0,.839.561c.31.15.631.286.961.409s.651.248.963.372a3.86,3.86,0,0,1,.84.453,2.141,2.141,0,0,1,.6.646,1.841,1.841,0,0,1,.224.95v.332a1.6,1.6,0,0,1-.152.693,1.88,1.88,0,0,1-.407.565,1.88,1.88,0,0,1-.587.383,1.809,1.809,0,0,1-.7.138h-.695a1.837,1.837,0,0,1-.708-.138,1.875,1.875,0,0,1-.591-.383,1.88,1.88,0,0,1-.407-.565,1.6,1.6,0,0,1-.152-.693v-.6l-1,.163v.44A2.47,2.47,0,0,0-14.2-6.57a2.837,2.837,0,0,0,.609.866,2.841,2.841,0,0,0,.89.585,2.755,2.755,0,0,0,1.071.211h.8a2.755,2.755,0,0,0,1.071-.211,2.841,2.841,0,0,0,.89-.585A2.876,2.876,0,0,0-8.26-6.57a2.5,2.5,0,0,0,.227-1.06v-.332a2.9,2.9,0,0,0-.224-1.2,2.564,2.564,0,0,0-.6-.84" transform="translate(14.427 16.305)"/>
      </g>
    </g>
    <g id="Group_527" data-name="Group 527" transform="translate(294.082 86.67)">
      <path id="Path_656" data-name="Path 656" class="cls-17" d="M0,0V.95H2.645V11.087h1V.95H6.285V0Z"/>
    </g>
    <g id="Group_529" data-name="Group 529" class="cls-21">
      <g id="Group_528" data-name="Group 528" transform="translate(304.469 86.514)">
        <path id="Path_657" data-name="Path 657" class="cls-17" d="M-9.8-11.34a2.564,2.564,0,0,0-.6-.84,3.7,3.7,0,0,0-.84-.58Q-11.7-13-12.2-13.194c-.332-.132-.651-.26-.963-.387a4.191,4.191,0,0,1-.84-.449,2.087,2.087,0,0,1-.6-.622,1.678,1.678,0,0,1-.224-.9v-.209a1.683,1.683,0,0,1,.141-.69,1.717,1.717,0,0,1,.382-.561,1.868,1.868,0,0,1,.563-.381,1.739,1.739,0,0,1,.693-.138h.62a1.72,1.72,0,0,1,.69.138,1.775,1.775,0,0,1,.561.381,1.779,1.779,0,0,1,.381.561,1.72,1.72,0,0,1,.139.69v.449l1-.161v-.288a2.662,2.662,0,0,0-.213-1.058,2.744,2.744,0,0,0-.585-.866,2.736,2.736,0,0,0-.866-.585,2.667,2.667,0,0,0-1.057-.213h-.712a2.7,2.7,0,0,0-1.062.213,2.707,2.707,0,0,0-.87.585,2.744,2.744,0,0,0-.585.866,2.667,2.667,0,0,0-.211,1.058v.209a2.85,2.85,0,0,0,.224,1.2,2.526,2.526,0,0,0,.593.824,3.5,3.5,0,0,0,.84.561q.468.224.963.409t.963.372a3.789,3.789,0,0,1,.838.453,2.112,2.112,0,0,1,.6.646,1.841,1.841,0,0,1,.224.95V-9.8a1.627,1.627,0,0,1-.15.693,1.921,1.921,0,0,1-.407.565,1.908,1.908,0,0,1-.587.382,1.815,1.815,0,0,1-.7.139h-.7a1.846,1.846,0,0,1-.708-.139,1.9,1.9,0,0,1-.591-.382,1.873,1.873,0,0,1-.4-.565,1.6,1.6,0,0,1-.152-.693v-.6l-1,.163v.44a2.505,2.505,0,0,0,.229,1.06,2.849,2.849,0,0,0,.611.866,2.865,2.865,0,0,0,.888.585,2.763,2.763,0,0,0,1.071.211h.8a2.76,2.76,0,0,0,1.07-.211,2.861,2.861,0,0,0,.888-.585,2.844,2.844,0,0,0,.612-.866A2.505,2.505,0,0,0-9.579-9.8v-.332a2.9,2.9,0,0,0-.224-1.2" transform="translate(15.975 18.479)"/>
      </g>
    </g>
  </g>
</svg>
